<svg xmlns="http://www.w3.org/2000/svg" viewBox="0 0 1024 1024"><title>polyestr-utils</title><rect width="512" height="1024" fill="#007acc"/><rect x="512" width="512" height="1024" fill="#f7df1e"/><path d="M119,435V580c0,26,11,37,33,37s42-14,53-32V435h36V640H210l-3-27c-16,21-41,32-65,32-40,0-59-23-59-61V435Z" fill="#fff"/><path d="M486,630c-14,9-36,15-56,15-45,0-70-26-70-63V463H312V435h47V389l36-4v51h70l-4,27H395V581c0,23,11,34,38,34,15,0,28-4,39-10Z" fill="#fff"/><path d="M656,613h57v28H558V613h63V463H559V435h97ZM638,387c-15,0-25-11-25-25s10-24,25-24,25,11,25,24S653,387,638,387Z" fill="#231f20"/><path d="M938,634c-10,5-30,11-50,11-38,0-62-22-62-60V381H764V353h98V588c0,20,14,27,33,27s23-3,34-7Z" fill="#231f20"/></svg>